<svg width="22" height="16" viewBox="0 0 22 16" fill="none" xmlns="http://www.w3.org/2000/svg">
<path d="M8.11629 8.25928C8.11629 8.95547 8.39285 9.62315 8.88513 10.1154C9.37741 10.6077 10.0451 10.8843 10.7413 10.8843C11.4375 10.8843 12.1052 10.6077 12.5974 10.1154C13.0897 9.62315 13.3663 8.95547 13.3663 8.25928C13.3663 7.56308 13.0897 6.89541 12.5974 6.40312C12.1052 5.91084 11.4375 5.63428 10.7413 5.63428C10.0451 5.63428 9.37741 5.91084 8.88513 6.40312C8.39285 6.89541 8.11629 7.56308 8.11629 8.25928ZM20.9178 7.65459C18.696 2.97412 15.3374 0.618652 10.835 0.618652C6.33035 0.618652 2.9741 2.97412 0.752223 7.65693C0.663103 7.84564 0.616882 8.05175 0.616882 8.26045C0.616882 8.46915 0.663103 8.67525 0.752223 8.86396C2.9741 13.5444 6.33269 15.8999 10.835 15.8999C15.3397 15.8999 18.696 13.5444 20.9178 8.86162C21.0983 8.48193 21.0983 8.04131 20.9178 7.65459ZM10.7413 12.3843C8.46316 12.3843 6.61629 10.5374 6.61629 8.25928C6.61629 5.98115 8.46316 4.13428 10.7413 4.13428C13.0194 4.13428 14.8663 5.98115 14.8663 8.25928C14.8663 10.5374 13.0194 12.3843 10.7413 12.3843Z" fill="#718096"/>
</svg>
