<svg width="32" height="32" viewBox="0 0 32 32" fill="none" xmlns="http://www.w3.org/2000/svg">
<circle cx="16" cy="15.9999" r="4" fill="#D9D9D9"/>
<mask id="path-2-inside-1_202_161" fill="white">
<path d="M7.61172 8.70458C5.95802 10.7649 5.08984 13.3456 5.16197 15.9866C5.2341 18.6275 6.24186 21.157 8.00555 23.124C9.76925 25.091 12.1742 26.3676 14.7917 26.7263C17.4091 27.085 20.0689 26.5024 22.2968 25.0824L20.7254 22.6172C19.0818 23.6648 17.1196 24.0946 15.1886 23.8299C13.2576 23.5653 11.4833 22.6235 10.1822 21.1723C8.88101 19.7212 8.13754 17.8551 8.08433 15.9067C8.03111 13.9584 8.67161 12.0545 9.89162 10.5345L7.61172 8.70458Z"/>
</mask>
<path d="M7.61172 8.70458C5.95802 10.7649 5.08984 13.3456 5.16197 15.9866C5.2341 18.6275 6.24186 21.157 8.00555 23.124C9.76925 25.091 12.1742 26.3676 14.7917 26.7263C17.4091 27.085 20.0689 26.5024 22.2968 25.0824L20.7254 22.6172C19.0818 23.6648 17.1196 24.0946 15.1886 23.8299C13.2576 23.5653 11.4833 22.6235 10.1822 21.1723C8.88101 19.7212 8.13754 17.8551 8.08433 15.9067C8.03111 13.9584 8.67161 12.0545 9.89162 10.5345L7.61172 8.70458Z" stroke="#D9D9D9" stroke-width="4" mask="url(#path-2-inside-1_202_161)"/>
</svg>
